<svg xmlns="http://www.w3.org/2000/svg" width="100" height="24" viewBox="0 0 100 24">
    <path d="M35 0v.351h.185c.17 0 .329.071.475.212.147.118.271.27.37.457.098.19.172.391.22.599.049.21.073.398.073.562v19.53c0 .186-.024.399-.074.633a2.52 2.52 0 0 1-.22.598c-.094.183-.22.35-.369.494a.675.675 0 0 1-.475.21H35v.353h4.005v-.354h-.184a.717.717 0 0 1-.514-.209 2.799 2.799 0 0 1-.405-.494 2.51 2.51 0 0 1-.22-.598 3.136 3.136 0 0 1-.074-.634V3.518l9.002 20.48L56.09 2.43V21.71c0 .187-.024.4-.074.634a1.85 1.85 0 0 1-.256.598c-.097.187-.219.353-.365.494a.68.68 0 0 1-.48.21h-.183v.353h5.216v-.354h-.183a.723.723 0 0 1-.515-.209 2.79 2.79 0 0 1-.403-.494 2.51 2.51 0 0 1-.22-.598 3.135 3.135 0 0 1-.074-.634V2.181c0-.164.025-.352.074-.563a2.52 2.52 0 0 1 .22-.598c.123-.187.256-.34.403-.457a.723.723 0 0 1 .516-.212h.183V0h-4.152l-8.524 19.25L38.747 0zm60.884 2.181L92.21 3.306v.354c.613.024.967.21 1.066.563.121.329.185.69.185 1.09v3.132h-2.058v1.197h2.057v8.76c0 .68.01 1.348.036 2.007a5.88 5.88 0 0 0 .404 1.794c.22.54.576.972 1.066 1.301.49.329 1.177.494 2.058.494.711 0 1.236-.094 1.58-.282.367-.187.65-.364.844-.529a.767.767 0 0 1 .552-.211v-2.568h-.331a3.168 3.168 0 0 1-.88 1.689c-.442.47-.92.704-1.435.704-.343 0-.611-.082-.807-.246-.196-.187-.343-.446-.44-.775a5.305 5.305 0 0 1-.186-1.232 33.518 33.518 0 0 1-.037-1.654V9.642H100V8.446h-4.116zm-29.945.775c-.49 0-.907.165-1.25.494a1.651 1.651 0 0 0-.478 1.195c0 .47.16.857.478 1.162.343.305.76.458 1.249.458.49 0 .908-.153 1.25-.458.343-.305.514-.693.514-1.162 0-.47-.17-.867-.514-1.195a1.741 1.741 0 0 0-1.249-.494zm1.69 5.067L63.952 9.15v.316c.59.024.946.225 1.069.6.122.352.183.728.183 1.126v10.518c0 .187-.026.4-.074.634a2.48 2.48 0 0 1-.22.598c-.098.187-.22.354-.367.494a.717.717 0 0 1-.514.21V24h4.776v-.354a.722.722 0 0 1-.516-.209 1.887 1.887 0 0 1-.366-.494 2.51 2.51 0 0 1-.22-.598 3.136 3.136 0 0 1-.074-.634zm8.745.036-3.675 1.127v.317c.588.023.943.222 1.065.598.122.351.185.727.185 1.126V21.71c0 .187-.024.4-.074.634-.05.212-.137.415-.258.598-.097.187-.22.353-.365.494a.68.68 0 0 1-.48.21v.353h4.778v-.354a.717.717 0 0 1-.514-.209 4.506 4.506 0 0 1-.368-.494c-.099-.19-.173-.39-.221-.598a3.135 3.135 0 0 1-.074-.634v-8.583c0-.492.123-.963.37-1.409.268-.469.598-.865.99-1.195a5.285 5.285 0 0 1 1.397-.846 4.404 4.404 0 0 1 1.617-.316c.538 0 1.064.105 1.58.317a3.694 3.694 0 0 1 1.433.915c.417.422.747.95.992 1.583s.367 1.372.367 2.218v7.316c0 .187-.024.4-.074.634-.05.212-.137.414-.258.598-.097.187-.22.353-.366.494a.68.68 0 0 1-.48.21v.353h4.742v-.354a.722.722 0 0 1-.515-.21 4.506 4.506 0 0 1-.368-.493 2.51 2.51 0 0 1-.22-.598 3.135 3.135 0 0 1-.073-.634v-7.562c0-.681-.122-1.374-.367-2.077a5.284 5.284 0 0 0-1.103-1.97c-.515-.61-1.175-1.102-1.983-1.478-.809-.376-1.789-.564-2.94-.564-.686 0-1.287.071-1.801.212-.49.118-.932.281-1.324.492a4.7 4.7 0 0 0-.954.634 5.485 5.485 0 0 0-.662.598z"/>
    <path d="M25.17.004a4.599 4.599 0 0 0-1.394.597.48.48 0 0 0-.596-.435 6.74 6.74 0 0 0-1.905.823.48.48 0 0 0-.624-.34 7.053 7.053 0 0 0-2.401 1.489.515.515 0 0 0-.244-.323.478.478 0 0 0-.431-.015c-.46.209-1.574.826-2.709 2.29l.021.01c-1.285 1.314-2.407 2.785-3.159 4.85a.543.543 0 0 1-.436.365.47.47 0 0 1-.457-.21 3.648 3.648 0 0 0-.283-.376c-1.325 2.659-1.163 8.536.036 11.255 1.146 2.69 1.418 3.715 1.462 3.931.222-.722.604-1.954.683-2.216a52.335 52.334 0 0 1 1.28-3.709c-.999-1.844-1.144-4.452-.53-6.855.186-.729 1.086-.566.903.142-.474 1.84-.456 3.86.142 5.432a52.362 52.36 0 0 1 2.72-5.563 10.452 10.452 0 0 1 .138-3.5 3.682 3.682 0 0 1 .453-1.198c.416-.613 1.142-.08.736.518-.012.02-.015.02-.014.016l-.036.085a4.231 4.231 0 0 0-.214.658 7.92 7.92 0 0 0-.195 1.94 51.87 51.87 0 0 1 4.547-6.344c.462-.545 1.13.06.68.59a50.105 50.104 0 0 0-4.473 6.245 10.607 10.606 0 0 0 1.631-.94 4.526 4.526 0 0 0 .497-.415c.036-.035.056-.052.066-.06-.005.002-.005.001.008-.018.316-.603 1.176-.001.736.514a3.527 3.527 0 0 1-.86.793 15.98 15.98 0 0 1-2.934 1.58 51.404 51.402 0 0 0-2.664 5.456c1.52-.627 2.966-1.772 4.122-2.998.427-.49 1.121.224.635.654-1.46 1.55-3.307 2.968-5.264 3.608-.49 1.266-1.397 4.487-1.727 5.67.547-.61 1.898-1.779 5.155-3.097 4.125-1.57 5.65-4.046 6.119-5.046a.518.518 0 0 0-.208-.658A2.135 2.135 0 0 0 23.68 15a15.548 15.548 0 0 0 1.847-3.279.529.529 0 0 0-.004-.399.481.481 0 0 0-.273-.261 2.5 2.5 0 0 0-.478-.125 7.102 7.102 0 0 0 .914-2.782.502.502 0 0 0-.127-.377.488.488 0 0 0-.351-.164h-.021a7.68 7.68 0 0 0 .721-2.388.496.496 0 0 0-.436-.556 8.274 8.274 0 0 0 .502-1.878.509.509 0 0 0-.127-.407.478.478 0 0 0-.353-.162A5.486 5.486 0 0 0 25.99.815a.92.92 0 0 0-.087-.55c-.142-.316-.63-.262-.732-.26zM2.686.288c-.012 0-.02.003-.032.004a.587.587 0 0 0-.045.004c-.021.004-.044.006-.065.013a.313.313 0 0 0-.026.01c-.003 0-.003.002-.006.003a.49.49 0 0 0-.065.033c-.01.005-.021.009-.03.015a.488.488 0 0 0-.214.436A4.52 4.52 0 0 0 .745.412a1.02 1.02 0 0 1-.062.006l-.095.01L.526.44l-.04.009a1.13 1.13 0 0 0-.108.03C.357.485.338.495.317.504.303.51.287.514.273.522.252.532.235.545.215.559L.18.585C.16.602.14.617.124.637.116.645.111.658.104.667L.098.675a.375.375 0 0 0-.05.098.92.92 0 0 0-.011.556A5.518 5.518 0 0 0 .719 2.65a.484.484 0 0 0-.326.21.521.521 0 0 0-.07.422 8.376 8.376 0 0 0 .748 1.793.46.46 0 0 0-.27.18.494.494 0 0 0-.086.433 7.61 7.61 0 0 0 1.039 2.264h-.023a.496.496 0 0 0-.326.209.52.52 0 0 0-.076.394 7.06 7.06 0 0 0 1.28 2.628 2.454 2.454 0 0 0-.457.19.482.482 0 0 0-.235.294.534.534 0 0 0 .05.397 15.486 15.486 0 0 0 2.271 2.992 2.264 2.264 0 0 0-.476.27.513.513 0 0 0-.116.675c.03.047.064.099.101.153.04.057.084.115.131.178l.008.01a8.185 8.184 0 0 0 1.317 1.375l.02.017a9.299 9.298 0 0 0 .324.26c.051.038.103.073.155.11.07.052.142.102.216.153l.203.135c.064.042.124.085.19.126.076.048.155.094.233.14l.188.111c.086.048.175.095.263.142l.188.098c.096.048.196.095.294.141.063.03.12.06.184.09.112.05.227.098.341.146.043.018.083.038.127.056l.004.002.036.013c.093.037.879.262 1.542.41-.49-1.136-.8-2.63-.924-4.212a18.741 18.741 0 0 1-1.543-1.192c-.568-.406.105-1.247.616-.77.278.24.576.471.876.698a18.048 18.048 0 0 1 .284-3.547 17.257 17.257 0 0 1-3.166-1.317 3.753 3.753 0 0 1-1.007-.751c-.528-.505.335-1.248.738-.637.017.02.014.023.009.02.011.008.035.025.078.059a4.876 4.876 0 0 0 .58.39 11.42 11.42 0 0 0 1.855.828A53.467 53.466 0 0 0 4.855 5.52a54.048 54.047 0 0 0-2.213-2.285c-.54-.52.117-1.242.67-.709A55.397 55.396 0 0 1 8.87 8.824a8.46 8.46 0 0 0-.41-2.057 4.48 4.48 0 0 0-.297-.68l-.048-.09c0 .005-.001.007-.017-.013-.499-.596.227-1.247.738-.636a3.935 3.935 0 0 1 .614 1.236c.17.538.29 1.09.376 1.647.063-.13.125-.262.193-.381a.537.537 0 0 1 .303-.236.461.461 0 0 1 .361.042 1.9 1.9 0 0 1 .438.36c.651-1.54 1.555-3.081 2.664-4.326-.424-.511-1.31-1.196-1.343-1.223-.01-.008-.022-.01-.032-.017a.51.51 0 0 0-.385-.09.484.484 0 0 0-.326.236 2.509 2.509 0 0 0-.184.431l-.049-.043a9.845 9.845 0 0 0-.355-.325l-.053-.05a8.856 8.856 0 0 0-.396-.32L10.6 2.24a8.464 8.464 0 0 0-.406-.292l-.05-.03a7.403 7.403 0 0 0-.585-.347c-.018-.01-.034-.022-.051-.03l-.074-.038c-.037-.019-.072-.035-.108-.052l-.047-.022c-.042-.02-.084-.043-.124-.06l-.036-.016c-.041-.018-.08-.037-.119-.052l-.036-.013c-.036-.015-.074-.028-.11-.042l-.042-.015c-.029-.01-.062-.025-.09-.035l-.071-.026-.04-.011-.102-.033a.537.537 0 0 0-.127-.02h-.01c-.01.001-.02.005-.03.005-.027 0-.056 0-.082.006a.461.461 0 0 0-.178.083.516.516 0 0 0-.199.35A6.995 6.994 0 0 0 5.308.416H5.3A.477.477 0 0 0 5.192.41c-.016 0-.033.004-.049.006a.473.473 0 0 0-.408.427A6.735 6.735 0 0 0 2.739.29L2.735.286c-.017-.002-.034 0-.05 0z"/>
</svg>
