<svg xmlns="http://www.w3.org/2000/svg" width="220" height="181.5" viewBox="0 0 250 165"><defs><linearGradient id="b"><stop offset="0" stop-color="#5639c1"></stop><stop offset="1" stop-color="#f80eb3"></stop></linearGradient><linearGradient id="a"><stop offset="0" stop-color="#5639c1"></stop><stop offset="1" stop-color="#f80eb3"></stop></linearGradient><linearGradient gradientTransform="translate(5.657 -.005)" gradientUnits="userSpaceOnUse" id="d" x1="-5.657" x2="211.343" href="#b" y1="82.505" y2="82.505"></linearGradient><linearGradient id="c" x1="-5.657" x2="211.343" y1="82.505" y2="82.505" gradientTransform="translate(5.657 -.005)" gradientUnits="userSpaceOnUse" href="#a"></linearGradient></defs><path fill="url(#c)" d="M245.943 41.45c-24.16 5.78-44.026 6.067-61.218 3.597-10.998 13.44-17.726 26.944-23.33 40.224 23.39-6.552 46.394-15.233 65.388-26.583-20.51 15.128-44.225 25.725-68.123 33.277-8.739 21.96-15.512 43.564-34.771 60.285l-2.252 1.953c28.048-9.77 76.975-36.416 124.306-112.754z"></path><path fill="url(#d)" d="M30.552 33.567c-49.954 36.431-27.206 95.236-11.548 81.492 25.592-22.14 64.03-76.108 137.652-95.465-66.83 18.181-113.972 81.988-126.349 98.033-12.377 16.044 1.958 42.386 31.297 46.488 29.339 4.103 45.808-6.826 57.697-17.147l.004.002c38.478-33.408 23.43-90.436 97.695-139.7C94.163-17.025 39.84 26.794 30.552 33.568z"></path></svg>
