<?xml version="1.0" encoding="UTF-8" standalone="no"?>
<svg
   xmlns:dc="http://purl.org/dc/elements/1.1/"
   xmlns:cc="http://creativecommons.org/ns#"
   xmlns:rdf="http://www.w3.org/1999/02/22-rdf-syntax-ns#"
   xmlns:svg="http://www.w3.org/2000/svg"
   xmlns="http://www.w3.org/2000/svg"
   xmlns:sodipodi="http://sodipodi.sourceforge.net/DTD/sodipodi-0.dtd"
   xmlns:inkscape="http://www.inkscape.org/namespaces/inkscape"
   width="99"
   height="24"
   viewBox="0 0 99 158.4"
   version="1.1"
   id="svg2125"
   sodipodi:docname="logo-with-name-horizontal.svg"
   inkscape:version="0.92.5 (2060ec1f9f, 2020-04-08)">
  <metadata
     id="metadata2131">
    <rdf:RDF>
      <cc:Work
         rdf:about="">
        <dc:format>image/svg+xml</dc:format>
        <dc:type
           rdf:resource="http://purl.org/dc/dcmitype/StillImage" />
        <dc:title></dc:title>
      </cc:Work>
    </rdf:RDF>
  </metadata>
  <defs
     id="defs2129" />
  <sodipodi:namedview
     pagecolor="#ffffff"
     bordercolor="#666666"
     borderopacity="1"
     objecttolerance="10"
     gridtolerance="10"
     guidetolerance="10"
     inkscape:pageopacity="0"
     inkscape:pageshadow="2"
     inkscape:window-width="3840"
     inkscape:window-height="2038"
     id="namedview2127"
     showgrid="false"
     inkscape:zoom="16"
     inkscape:cx="56.705469"
     inkscape:cy="6.9459845"
     inkscape:window-x="0"
     inkscape:window-y="60"
     inkscape:window-maximized="1"
     inkscape:current-layer="svg2125"
     inkscape:lockguides="true" />
  <g
     aria-label="Mint"
     transform="scale(1.0057314,0.99430126)"
     style="font-style:normal;font-weight:normal;font-size:237.41854858px;line-height:1.25;font-family:sans-serif;letter-spacing:0px;word-spacing:0px;fill:#000000;fill-opacity:1;stroke:none;stroke-width:5.93546391"
     id="text2696">
    <path
       style="font-style:normal;font-variant:normal;font-weight:normal;font-stretch:normal;font-family:Forum;-inkscape-font-specification:Forum;stroke-width:0.89931273"
       d="m 35,0 v 0.35742188 h 0.181641 c 0.168833,-1e-8 0.324035,0.0717737 0.46875,0.21484374 0.144714,0.11922503 0.266804,0.2740837 0.363281,0.46484378 0.09648,0.19076 0.168559,0.3928168 0.216797,0.6074218 0.04824,0.2146051 0.07227,0.4053507 0.07227,0.5722657 V 21.671875 c 0,0.19076 -0.02403,0.406081 -0.07227,0.644531 -0.04824,0.214605 -0.120321,0.416662 -0.216797,0.607422 -0.09648,0.19076 -0.218567,0.358883 -0.363281,0.501953 -0.144715,0.14307 -0.299917,0.212891 -0.46875,0.212891 H 35 v 0.359375 h 3.943359 v -0.359375 h -0.18164 c -0.192953,0 -0.361145,-0.06982 -0.50586,-0.212891 -0.144714,-0.14307 -0.277841,-0.311193 -0.398437,-0.501953 -0.09648,-0.19076 -0.168559,-0.392817 -0.216797,-0.607422 -0.04824,-0.23845 -0.07227,-0.453771 -0.07227,-0.644531 V 3.5761719 L 46.431641,24.390625 55.765625,2.46875 v 19.203125 c 0,0.19076 -0.02403,0.406081 -0.07227,0.644531 -0.04824,0.214605 -0.131357,0.416662 -0.251953,0.607422 -0.09648,0.19076 -0.216613,0.358883 -0.361328,0.501953 -0.144715,0.14307 -0.301869,0.212891 -0.470703,0.212891 h -0.181641 v 0.359375 h 5.136719 v -0.359375 h -0.179687 c -0.192952,0 -0.363097,-0.06982 -0.507813,-0.212891 -0.144714,-0.14307 -0.275889,-0.311193 -0.396484,-0.501953 -0.09648,-0.19076 -0.168559,-0.392817 -0.216797,-0.607422 -0.04824,-0.23845 -0.07227,-0.453771 -0.07227,-0.644531 V 2.2167969 c 0,-0.166915 0.02403,-0.3576606 0.07227,-0.5722657 0.04824,-0.214605 0.120321,-0.4166618 0.216797,-0.6074218 0.120595,-0.19076008 0.25177,-0.34561875 0.396484,-0.46484378 0.144716,-0.14307003 0.314861,-0.21484374 0.507813,-0.21484374 h 0.179687 V 0 H 55.476562 L 47.083984,19.564453 38.689453,0 Z m 59.947266,2.2167969 -3.617188,1.1445312 v 0.359375 c 0.602979,0.023845 0.952352,0.2145906 1.048828,0.5722657 0.120596,0.3338301 0.181641,0.7020568 0.181641,1.1074218 v 3.1835938 h -2.025391 v 1.2167968 h 2.025391 v 8.5097658 c 0,0.691505 0.01104,1.371402 0.03516,2.039062 0.04824,0.667661 0.181365,1.275785 0.398438,1.824219 0.217071,0.548436 0.566445,0.988436 1.048828,1.322266 0.482382,0.33383 1.159055,0.501953 2.027343,0.501953 0.699455,0 1.21702,-0.09635 1.554688,-0.28711 0.361787,-0.19076 0.639078,-0.370194 0.832031,-0.537109 C 98.601746,23.030758 98.782929,22.958984 99,22.958984 v -2.609375 h -0.326172 c -0.120596,0.667661 -0.408924,1.239897 -0.867187,1.716797 -0.434144,0.4769 -0.905608,0.714844 -1.41211,0.714844 -0.337667,0 -0.601969,-0.08309 -0.794922,-0.25 -0.192953,-0.19076 -0.337117,-0.453279 -0.433593,-0.787109 -0.09648,-0.33383 -0.157523,-0.751208 -0.181641,-1.251954 -0.02412,-0.500745 -0.03711,-1.06167 -0.03711,-1.68164 V 9.8007812 H 99 V 8.5839844 H 94.947266 Z M 65.462891,3.0039062 c -0.482383,1e-7 -0.892801,0.1681232 -1.230469,0.5019532 -0.313549,0.3338301 -0.470703,0.7379436 -0.470703,1.2148437 0,0.4769002 0.157154,0.8716556 0.470703,1.1816407 0.337668,0.309985 0.748086,0.4648437 1.230469,0.4648437 0.482382,0 0.892801,-0.1548587 1.230468,-0.4648437 0.337668,-0.3099851 0.50586,-0.7047405 0.50586,-1.1816407 0,-0.4769001 -0.168192,-0.8810136 -0.50586,-1.2148437 -0.337667,-0.33383 -0.748086,-0.5019531 -1.230468,-0.5019532 z m 1.664062,5.1503907 -3.619141,1.1445312 v 0.3222657 c 0.578859,0.023845 0.930185,0.2278549 1.050782,0.6093752 0.120595,0.357675 0.179687,0.739166 0.179687,1.144531 v 10.296875 c 0,0.19076 -0.02403,0.406081 -0.07227,0.644531 -0.04824,0.214605 -0.120321,0.416662 -0.216797,0.607422 -0.09648,0.19076 -0.216613,0.358883 -0.361328,0.501953 -0.144715,0.14307 -0.312907,0.212891 -0.50586,0.212891 v 0.359375 h 4.703125 v -0.359375 c -0.192953,0 -0.363098,-0.06982 -0.507812,-0.212891 -0.144715,-0.14307 -0.264851,-0.311193 -0.361328,-0.501953 -0.09648,-0.19076 -0.168559,-0.392817 -0.216797,-0.607422 -0.04824,-0.23845 -0.07227,-0.453771 -0.07227,-0.644531 z m 8.609375,0.037109 -3.617187,1.1445313 v 0.3222656 c 0.578859,0.023845 0.928232,0.2259018 1.048828,0.6074219 0.120595,0.357675 0.18164,0.739166 0.18164,1.144531 v 10.261719 c 0,0.19076 -0.02403,0.406081 -0.07227,0.644531 -0.04824,0.214605 -0.13331,0.416662 -0.253906,0.607422 -0.09648,0.19076 -0.216614,0.358883 -0.361329,0.501953 -0.144714,0.14307 -0.301869,0.212891 -0.470703,0.212891 v 0.359375 h 4.703125 v -0.359375 c -0.192953,0 -0.361145,-0.06982 -0.505859,-0.212891 -0.120595,-0.14307 -0.240732,-0.311193 -0.361328,-0.501953 -0.09648,-0.19076 -0.170512,-0.392817 -0.21875,-0.607422 -0.04824,-0.23845 -0.07227,-0.453771 -0.07227,-0.644531 v -8.330078 c 0,-0.500745 0.122091,-0.978586 0.363281,-1.431641 0.265311,-0.4769 0.590658,-0.881013 0.976563,-1.214844 0.410025,-0.357675 0.868498,-0.644769 1.375,-0.8593745 0.53062,-0.2146051 1.061176,-0.3222656 1.591797,-0.3222656 0.530621,0 1.048186,0.1076605 1.554687,0.3222656 0.530621,0.1907605 1.002085,0.5004775 1.41211,0.9296875 0.410025,0.42921 0.735371,0.96556 0.976562,1.609375 0.241192,0.643815 0.361328,1.395486 0.361328,2.253906 v 7.042969 c 0,0.19076 -0.02403,0.406081 -0.07227,0.644531 -0.04824,0.214605 -0.13331,0.416662 -0.253907,0.607422 -0.09648,0.19076 -0.216613,0.358883 -0.361328,0.501953 -0.144714,0.14307 -0.301869,0.212891 -0.470703,0.212891 v 0.359375 h 4.667969 v -0.359375 c -0.192953,0 -0.363098,-0.06982 -0.507813,-0.212891 -0.120595,-0.14307 -0.240731,-0.311193 -0.361328,-0.501953 -0.09648,-0.19076 -0.168558,-0.392817 -0.216797,-0.607422 -0.04824,-0.23845 -0.07227,-0.453771 -0.07227,-0.644531 v -7.292969 c 0,-0.691505 -0.120137,-1.395978 -0.361328,-2.111328 C 86.120818,11.528383 85.758455,10.86175 85.251953,10.265625 84.745452,9.6456549 84.094759,9.145192 83.298828,8.7636719 82.502897,8.3821518 81.537895,8.1914062 80.404297,8.1914062 c -0.675336,0 -1.266936,0.071774 -1.773438,0.2148438 -0.482382,0.1192251 -0.916828,0.2853949 -1.302734,0.5 -0.361787,0.19076 -0.674143,0.4060811 -0.939453,0.6445312 -0.26531,0.2146051 -0.48351,0.4166619 -0.652344,0.6074218 z"
       transform="matrix(6.5623883,0,0,6.6378273,-275.62031,0)"
       id="path10980"
       inkscape:connector-curvature="0"
       sodipodi:nodetypes="ccsccssscccsccccscccscccsccssccccscccsscccsccccccccccsccccsccssccccccscccscccccscscscscsccccsscsscccccccscccccssccccccccccsscccscscssccccccccccssccssccccc" />
  </g>
  <path
     style="fill:#000000;fill-opacity:1;stroke:none;stroke-width:1.34168708;stroke-linejoin:miter;stroke-miterlimit:4;stroke-dasharray:none;stroke-dashoffset:0;stroke-opacity:1;paint-order:stroke fill markers"
     d="m -111.07317,0.0275744 c -3.25251,0.7936858 -6.37339,2.1224378 -9.20299,3.9406139 -0.15632,-2.0074869 -2.02324,-3.3668687 -3.93816,-2.8763612 -4.43622,1.1593303 -8.67779,2.9728172 -12.56859,5.4363225 -0.4667,-1.8311053 -2.36703,-2.8630756 -4.1197,-2.2435613 -5.87091,2.1549418 -11.26591,5.5057911 -15.85037,9.8227727 -0.23182,-0.903121 -0.80505,-1.676678 -1.60598,-2.128507 -0.88318,-0.479695 -1.93992,-0.527389 -2.8489,-0.100675 -3.03644,1.377911 -10.38326,5.452797 -17.87532,15.115275 0.0493,0.02768 0.0905,0.04427 0.13964,0.07189 -8.48299,8.664682 -15.88703,18.377804 -20.84986,31.999544 -0.43056,1.29062 -1.54688,2.221502 -2.87681,2.416143 -1.18957,0.156678 -2.35606,-0.379664 -3.01646,-1.395034 -0.56321,-0.866563 -1.20234,-1.688286 -1.87133,-2.473671 -8.73982,17.546008 -7.67178,56.335454 0.23741,74.282014 7.56752,17.75712 9.35913,24.51523 9.64988,25.94478 1.46798,-4.76681 3.98489,-12.89407 4.51072,-14.62631 2.51041,-8.27675 5.33704,-16.44263 8.44889,-24.47782 -6.59575,-12.16938 -7.55155,-29.387002 -3.50525,-45.245155 1.23196,-4.807905 7.17284,-3.737233 5.96311,0.934816 -3.12349,12.145091 -3.01076,25.477966 0.93565,35.853839 5.2607,-12.586224 11.26089,-24.862271 17.95911,-36.716743 -0.99733,-7.696313 -0.6929,-15.507537 0.90773,-23.097178 0.52897,-2.797606 1.53968,-5.474047 2.98853,-7.909992 2.74293,-4.044592 7.53462,-0.523068 4.85985,3.422868 -0.0846,0.124586 -0.1014,0.128183 -0.0977,0.100675 -0.0343,0.09215 -0.10423,0.247179 -0.23739,0.560887 -0.58517,1.400148 -1.06156,2.863445 -1.41047,4.343305 -0.95529,4.19561 -1.38306,8.493724 -1.28479,12.799806 8.95424,-14.709842 18.98247,-28.702683 30.01098,-41.865432 3.0442,-3.596627 7.44933,0.391398 4.48279,3.897468 -4.18155,4.988487 -8.2145,10.083034 -12.09376,15.302241 -6.21526,8.357635 -12.02601,17.00422 -17.42844,25.916009 3.76033,-1.742422 7.36419,-3.825544 10.76708,-6.212939 1.15895,-0.831899 2.25017,-1.741468 3.28181,-2.732541 0.2378,-0.231234 0.36794,-0.34446 0.43294,-0.402691 -0.0321,0.01931 -0.0321,0.01433 0.0558,-0.115051 2.08745,-3.975393 7.75876,-0.01086 4.85984,3.394105 -1.59019,2.050305 -3.52265,3.829443 -5.68379,5.234977 -6.0867,4.150524 -12.56419,7.63661 -19.35561,10.426809 -6.55752,11.638885 -12.433,23.658227 -17.58206,36.012047 10.03324,-4.13999 19.57126,-11.69534 27.204,-19.789368 2.81832,-3.234988 7.39704,1.481652 4.18952,4.314538 -9.63521,10.23681 -21.82785,19.58894 -34.74513,23.81626 -3.23199,8.35495 -9.21478,29.61018 -11.39552,37.42145 3.60893,-4.01907 12.52662,-11.74047 34.01896,-20.43654 27.22826,-10.35975 37.29208,-26.70527 40.38705,-33.30826 0.71615,-1.58289 0.11833,-3.48362 -1.36858,-4.34329 -1.05287,-0.578237 -2.1634,-1.013845 -3.32369,-1.308748 4.91419,-6.68433 9.01414,-13.943938 12.19152,-21.644615 0.33441,-0.848722 0.32476,-1.790886 -0.0278,-2.631874 -0.34464,-0.801589 -0.99557,-1.425143 -1.8015,-1.725816 -1.02226,-0.374993 -2.08202,-0.653755 -3.15611,-0.819763 3.257,-5.615561 5.31835,-11.881788 6.03292,-18.365564 0.0759,-0.914275 -0.2313,-1.810491 -0.83791,-2.488051 -0.5996,-0.668071 -1.43051,-1.05536 -2.3182,-1.078636 -0.0544,0.0051 -0.0873,-0.005 -0.13964,0 2.4348,-4.94396 4.03935,-10.279149 4.76209,-15.762458 0.2208,-1.829397 -1.0788,-3.48251 -2.87681,-3.66736 1.58085,-3.985382 2.70093,-8.142991 3.30973,-12.397114 0.13227,-0.979981 -0.18326,-1.959494 -0.83791,-2.689397 -0.59867,-0.667136 -1.44547,-1.062516 -2.33216,-1.064255 1.51175,-2.931452 2.61287,-6.0494265 3.28178,-9.2906461 0.1887,-1.2378103 -0.0151,-2.5081303 -0.57258,-3.624215 -0.9402,-2.0926435 -4.1517,-1.7325097 -4.8319,-1.725816 z m -148.40704,1.8696344 c -0.0776,0 -0.13353,0.022183 -0.20947,0.028766 -0.0918,0.00594 -0.20225,0.015394 -0.29328,0.028766 -0.14335,0.024137 -0.29441,0.04152 -0.43292,0.086286 -0.057,0.01608 -0.11185,0.036526 -0.16757,0.057531 -0.0221,0.008 -0.0211,0.01904 -0.0419,0.028766 -0.14888,0.062366 -0.29469,0.1316537 -0.43292,0.2157269 -0.0602,0.033966 -0.1385,0.06024 -0.19551,0.1006743 -0.94673,0.6340423 -1.47511,1.7230366 -1.41046,2.8763555 -3.04271,-1.4061521 -6.29665,-2.278927 -9.62195,-2.6031075 -0.0919,0.013006 -0.23218,0.025383 -0.40499,0.043143 -0.20819,0.021611 -0.42125,0.04176 -0.62843,0.071909 -0.13527,0.019394 -0.27076,0.046011 -0.40498,0.071909 -0.0902,0.016057 -0.17335,0.036503 -0.26534,0.057531 -0.23867,0.054217 -0.47972,0.1241223 -0.71222,0.2013452 -0.14263,0.048526 -0.26548,0.1111542 -0.40499,0.1725817 -0.0919,0.0388 -0.20289,0.068148 -0.29326,0.1150537 -0.13708,0.072686 -0.25018,0.1545577 -0.37707,0.2444914 -0.0777,0.054994 -0.1645,0.1127543 -0.2374,0.1725806 -0.12869,0.1104572 -0.2577,0.2114617 -0.36309,0.3451635 -0.0559,0.0564 -0.09,0.1392251 -0.13966,0.2013451 -0.013,0.017794 -0.016,0.02376 -0.028,0.043143 -0.13559,0.1965245 -0.26374,0.4181874 -0.33517,0.6471806 -0.40195,1.1842514 -0.42325,2.4671189 -0.0698,3.6673647 1.10478,3.1106525 2.61047,6.0382285 4.49676,8.7297555 -0.87527,0.13286 -1.64452,0.640282 -2.15062,1.380654 -0.54494,0.818177 -0.71495,1.835509 -0.46085,2.790068 1.18327,4.126006 2.83394,8.106443 4.92967,11.836226 -0.71368,0.167555 -1.33692,0.579634 -1.77357,1.179309 -0.62598,0.804165 -0.84716,1.874104 -0.57256,2.861977 1.44644,5.33121 3.77934,10.387997 6.85685,14.942695 h -0.15362 c -0.87553,0.153062 -1.63986,0.63936 -2.15061,1.380654 -0.50384,0.761945 -0.69573,1.705393 -0.50274,2.603106 1.58127,6.322674 4.46578,12.238349 8.44887,17.344455 -1.04437,0.312322 -2.05328,0.734367 -3.01645,1.251217 -0.75418,0.410248 -1.31533,1.103339 -1.55013,1.941546 -0.23454,0.886075 -0.10769,1.818545 0.33515,2.617493 4.18516,7.179457 9.22038,13.813189 14.98456,19.746205 -1.10733,0.460341 -2.17477,1.066395 -3.14216,1.783345 -1.35282,1.05857 -1.68785,2.99393 -0.76807,4.45837 0.20139,0.31047 0.42613,0.65254 0.67032,1.00672 0.26109,0.37736 0.55613,0.76208 0.86584,1.17931 l 0.0558,0.0574 c 2.54302,3.3584 5.4513,6.4067 8.68629,9.07492 l 0.13965,0.11503 c 0.68069,0.56594 1.38405,1.14003 2.13666,1.71143 0.33454,0.25555 0.67854,0.48448 1.01946,0.73347 0.46296,0.33799 0.93609,0.67033 1.42443,1.00673 0.43444,0.3008 0.89669,0.60056 1.34065,0.89167 0.42175,0.27652 0.81767,0.55765 1.25686,0.83414 0.50261,0.31378 1.02091,0.6164 1.53616,0.92044 0.41226,0.24582 0.81477,0.48931 1.24289,0.73347 0.56444,0.3186 1.15456,0.62756 1.73167,0.93482 0.41385,0.21995 0.8164,0.43047 1.2429,0.64718 0.63107,0.32185 1.29426,0.62922 1.94114,0.93482 0.41225,0.19733 0.79004,0.39721 1.21497,0.58962 0.73565,0.33318 1.49527,0.64824 2.24838,0.96359 0.28538,0.12121 0.54613,0.2542 0.83791,0.3739 l 0.028,0.0143 0.2374,0.0863 c 0.61189,0.24227 5.79965,1.73071 10.18056,2.70378 -3.23802,-7.49905 -5.27849,-17.36409 -6.10276,-27.79972 -3.55116,-2.47856 -6.99075,-5.103817 -10.18054,-7.866856 -3.74971,-2.683439 0.69211,-8.233714 4.06383,-5.076772 1.83333,1.585018 3.79907,3.104353 5.78155,4.602176 -0.11406,-8.000091 0.48028,-16.007792 1.87132,-23.413576 -7.22582,-2.208714 -14.23323,-5.086644 -20.89177,-8.686613 -2.47473,-1.268715 -4.72174,-2.93921 -6.64739,-4.961722 -3.4816,-3.330097 2.21441,-8.23549 4.87382,-4.199486 0.10864,0.128884 0.0919,0.146754 0.0558,0.129435 0.076,0.05521 0.23644,0.166614 0.51671,0.388306 1.2143,0.948703 2.4913,1.810192 3.82644,2.574344 3.91463,2.184473 8.01392,4.011131 12.2474,5.465088 -6.74265,-8.956964 -13.90251,-17.570411 -21.46434,-25.844102 -4.72001,-5.167017 -9.58536,-10.199999 -14.60749,-15.086514 -3.55946,-3.43136 0.77438,-8.19396 4.42693,-4.674085 13.24607,12.894227 25.50303,26.78307 36.67234,41.563415 -0.33783,-4.625739 -1.24696,-9.184939 -2.70924,-13.576425 -0.52848,-1.54769 -1.1801,-3.050822 -1.9551,-4.487122 -0.17586,-0.321598 -0.27398,-0.494707 -0.32121,-0.589655 0.007,0.02912 -0.009,0.03794 -0.11172,-0.08629 -3.29027,-3.934865 1.49987,-8.232574 4.87382,-4.199488 1.81299,2.451358 3.19134,5.214388 4.04988,8.154484 1.12023,3.55487 1.91675,7.197664 2.48578,10.872644 0.41414,-0.85188 0.82001,-1.726369 1.27082,-2.516817 0.45565,-0.748094 1.16599,-1.302168 1.99701,-1.553234 0.79932,-0.246266 1.65678,-0.136352 2.38804,0.273256 1.07636,0.636322 2.04688,1.443717 2.89077,2.372997 4.2959,-10.160097 10.25956,-20.32904 17.58204,-28.547868 -2.80122,-3.371717 -8.65364,-7.894037 -8.86782,-8.068193 -0.0665,-0.05341 -0.14107,-0.06653 -0.2095,-0.115051 -0.73478,-0.52932 -1.65492,-0.74408 -2.54165,-0.589656 -0.90618,0.174022 -1.67999,0.744442 -2.15062,1.553236 -0.48822,0.91427 -0.904,1.85604 -1.21496,2.847598 -0.10487,-0.101817 -0.21601,-0.186573 -0.32119,-0.28764 -0.76384,-0.738928 -1.54794,-1.442735 -2.34614,-2.142889 l -0.34914,-0.330777 c -0.8525,-0.736757 -1.71919,-1.428044 -2.61144,-2.11413 -0.13297,-0.100252 -0.27182,-0.216146 -0.40499,-0.316399 -0.87884,-0.664981 -1.76571,-1.315918 -2.68129,-1.927163 l -0.32121,-0.201345 c -1.25629,-0.827076 -2.54364,-1.579324 -3.86833,-2.286707 -0.11568,-0.06466 -0.22099,-0.141507 -0.33515,-0.201346 -0.16175,-0.08409 -0.3318,-0.165248 -0.48879,-0.2444898 -0.24417,-0.1245223 -0.47596,-0.2303451 -0.71222,-0.3451634 l -0.30723,-0.1438183 c -0.27746,-0.1325977 -0.55914,-0.283024 -0.82394,-0.4026903 l -0.2374,-0.1006743 c -0.26957,-0.1196457 -0.52677,-0.2416663 -0.78205,-0.3451612 -0.0809,-0.0356 -0.15655,-0.053931 -0.2374,-0.086286 -0.23713,-0.09616 -0.48766,-0.1807497 -0.72619,-0.273256 l -0.2793,-0.1006743 c -0.19029,-0.0712 -0.40892,-0.1670434 -0.58653,-0.2301097 l -0.47481,-0.1725806 c -0.0855,-0.027531 -0.18285,-0.046011 -0.26534,-0.071886 -0.22357,-0.073543 -0.44468,-0.1491062 -0.67032,-0.2157257 -0.26898,-0.074914 -0.5592,-0.1216377 -0.83791,-0.1294377 h -0.0699 c -0.0673,0.00263 -0.1285,0.025269 -0.19551,0.028766 -0.17952,0.00697 -0.36853,0.00697 -0.54465,0.043143 -0.42486,0.08848 -0.82146,0.2874972 -1.17303,0.5464743 -0.73048,0.5610812 -1.20572,1.3891715 -1.31271,2.3154708 -5.12312,-3.6328788 -10.89062,-6.1777726 -16.99552,-7.4929212 h -0.0558 c -0.23758,-0.042012 -0.47138,-0.055063 -0.71222,-0.043143 -0.10497,0.00503 -0.2182,0.028594 -0.32119,0.043143 -1.43177,0.1755714 -2.55321,1.3551257 -2.69528,2.8188344 -4.17752,-1.8944687 -8.62727,-3.119631 -13.16909,-3.6529785 l -0.028,-0.028766 c -0.11325,-0.011806 -0.22132,0 -0.33517,0 z"
     id="path2735"
     inkscape:connector-curvature="0" />
</svg>
