<?xml version="1.0" encoding="UTF-8" standalone="no"?>
<svg
   xmlns:dc="http://purl.org/dc/elements/1.1/"
   xmlns:cc="http://creativecommons.org/ns#"
   xmlns:rdf="http://www.w3.org/1999/02/22-rdf-syntax-ns#"
   xmlns:svg="http://www.w3.org/2000/svg"
   xmlns="http://www.w3.org/2000/svg"
   xmlns:sodipodi="http://sodipodi.sourceforge.net/DTD/sodipodi-0.dtd"
   xmlns:inkscape="http://www.inkscape.org/namespaces/inkscape"
   width="24"
   height="24"
   viewBox="0 0 24 158.4"
   version="1.1"
   id="svg6"
   sodipodi:docname="logo-square.svg"
   inkscape:export-filename="/home/gus/Projects/mint-lang/init-rework/assets/favicon.png"
   inkscape:export-xdpi="500"
   inkscape:export-ydpi="500"
   inkscape:version="0.92.5 (2060ec1f9f, 2020-04-08)">
  <metadata
     id="metadata12">
    <rdf:RDF>
      <cc:Work
         rdf:about="">
        <dc:format>image/svg+xml</dc:format>
        <dc:type
           rdf:resource="http://purl.org/dc/dcmitype/StillImage" />
        <dc:title></dc:title>
      </cc:Work>
    </rdf:RDF>
  </metadata>
  <defs
     id="defs10" />
  <sodipodi:namedview
     pagecolor="#ffffff"
     bordercolor="#666666"
     borderopacity="1"
     objecttolerance="10"
     gridtolerance="10"
     guidetolerance="10"
     inkscape:pageopacity="0"
     inkscape:pageshadow="2"
     inkscape:window-width="3840"
     inkscape:window-height="2038"
     id="namedview8"
     showgrid="false"
     inkscape:zoom="16"
     inkscape:cx="29.586028"
     inkscape:cy="25.568191"
     inkscape:window-x="0"
     inkscape:window-y="60"
     inkscape:window-maximized="1"
     inkscape:current-layer="svg6"
     fit-margin-top="0"
     fit-margin-left="0"
     fit-margin-right="0"
     fit-margin-bottom="0"
     showguides="false" />
  <path
     style="fill:#000000;fill-opacity:1;stroke:none;stroke-width:1.20578623;stroke-linejoin:miter;stroke-miterlimit:4;stroke-dasharray:none;stroke-dashoffset:0;stroke-opacity:1;paint-order:stroke fill markers"
     d="m 86.146875,9.92413 c -3.002261,0.694475 -5.883016,1.857133 -8.494919,3.448037 -0.14429,-1.756551 -1.867576,-2.94601 -3.635162,-2.516816 -4.09489,1.014414 -8.010116,2.601215 -11.601559,4.756782 -0.430802,-1.602217 -2.184923,-2.505191 -3.802735,-1.963116 -5.419207,1.885574 -10.399118,4.817566 -14.63086,8.594925 -0.213979,-0.790231 -0.743101,-1.467093 -1.48242,-1.862443 -0.815212,-0.419737 -1.790659,-0.461464 -2.62969,-0.08809 -2.802829,1.205672 -9.584388,4.771197 -16.5,13.225866 0.04548,0.02419 0.08365,0.03873 0.128911,0.06292 C 15.668108,41.163768 8.8337292,49.66275 4.2527352,61.581772 3.8553096,62.711064 2.8248714,63.525586 1.5972648,63.695897 0.4992294,63.83299 -0.5775144,63.363691 -1.1871102,62.475242 -1.7069836,61.717 -2.2969398,60.997992 -2.914453,60.31078 c -8.067387,15.352757 -7.0815261,49.29352 0.2191405,64.99677 6.9852783,15.53748 8.6390337,21.45082 8.9074227,22.70168 1.3550328,-4.17096 3.6782922,-11.28231 4.1636698,-12.79802 2.31726,-7.24216 4.926411,-14.3873 7.79883,-21.41809 -6.088275,-10.64821 -6.97053,-25.713636 -3.235551,-39.58952 1.137167,-4.206917 6.620962,-3.270079 5.504301,0.817964 -2.88317,10.626951 -2.779101,22.293218 0.86367,31.372106 4.855943,-11.012943 10.394485,-21.754484 16.577345,-32.127147 -0.920601,-6.734274 -0.639586,-13.569094 0.83789,-20.21003 0.488241,-2.447905 1.421224,-4.789791 2.758595,-6.921243 2.531886,-3.539018 6.954909,-0.457685 4.485934,2.99501 -0.07806,0.109013 -0.09362,0.112161 -0.09023,0.08809 -0.03167,0.08063 -0.09616,0.216281 -0.21914,0.490779 -0.540157,1.225129 -0.979875,2.505514 -1.301949,3.800392 -0.881786,3.671159 -1.276651,7.432007 -1.18594,11.19983 C 51.43484,52.83824 60.691512,40.594503 70.87149,29.077098 c 2.809977,-3.147048 6.876177,0.342475 4.13789,3.410285 -3.859832,4.364927 -7.582496,8.822654 -11.16328,13.38946 -5.737063,7.312931 -11.100731,14.878692 -16.0875,22.676508 3.471006,-1.524619 6.797591,-3.347351 9.93867,-5.436321 1.069767,-0.727912 2.07704,-1.523786 3.029294,-2.390974 0.21949,-0.202331 0.339649,-0.301405 0.39961,-0.352355 -0.02942,0.01691 -0.0299,0.01255 0.05157,-0.100672 1.92685,-3.478469 7.161812,-0.0095 4.485934,2.969842 -1.46784,1.794017 -3.251622,3.350762 -5.246478,4.580605 -5.618389,3.631708 -11.597514,6.682033 -17.866411,9.123459 -6.052986,10.184024 -11.47641,20.700953 -16.229295,31.510535 9.261279,-3.62249 18.065454,-10.233412 25.110934,-17.315694 2.60147,-2.830612 6.827918,1.296444 3.867191,3.77522 -8.893902,8.957204 -20.148434,17.140334 -32.071875,20.839234 -2.983319,7.31058 -8.505789,25.90891 -10.51875,32.74377 3.331271,-3.51669 11.562837,-10.27291 31.401559,-17.88197 25.133335,-9.06478 34.422848,-23.36711 37.279691,-29.14473 0.66105,-1.38504 0.109217,-3.04818 -1.263279,-3.800387 -0.97187,-0.505927 -1.996949,-0.887111 -3.067971,-1.145155 4.536101,-5.848787 8.3206,-12.200943 11.253515,-18.939037 0.308675,-0.742633 0.299792,-1.567021 -0.02578,-2.302888 -0.318146,-0.70139 -0.91897,-1.247 -1.662889,-1.510089 -0.943609,-0.328119 -1.921835,-0.572033 -2.913287,-0.717292 3.006413,-4.913616 4.90916,-10.396564 5.56875,-16.069868 0.07009,-0.799991 -0.21351,-1.58418 -0.773434,-2.177045 -0.553469,-0.584562 -1.320449,-0.92344 -2.139845,-0.943806 -0.04989,0.0045 -0.08057,-0.0044 -0.128905,0 2.247472,-4.325965 3.728571,-8.994256 4.395699,-13.79215 0.203795,-1.600723 -0.995795,-3.047197 -2.655464,-3.20894 1.459221,-3.487209 2.493117,-7.125117 3.055074,-10.847476 0.12212,-0.857483 -0.169184,-1.714557 -0.773434,-2.353222 -0.552611,-0.583742 -1.334262,-0.929701 -2.152735,-0.931223 1.395445,-2.565019 2.411838,-5.293247 3.029294,-8.129314 0.174201,-1.083084 -0.01367,-2.194614 -0.528514,-3.171188 C 89.739172,9.603157 86.774762,9.918274 86.146884,9.924131 Z m -136.988672,1.63593 c -0.07166,0 -0.123248,0.01941 -0.193359,0.02517 -0.08472,0.0052 -0.186689,0.01347 -0.270704,0.02517 -0.132322,0.02112 -0.27176,0.03633 -0.399609,0.0755 -0.05262,0.01407 -0.103259,0.03196 -0.154687,0.05034 -0.02041,0.007 -0.01947,0.01666 -0.03867,0.02517 -0.13743,0.05457 -0.27201,0.115197 -0.399609,0.188761 -0.05554,0.02972 -0.127842,0.05271 -0.180469,0.08809 -0.873901,0.554792 -1.361637,1.507662 -1.301954,2.516816 -2.808597,-1.230383 -5.812186,-1.994061 -8.88164,-2.277719 -0.08486,0.01138 -0.214318,0.02221 -0.373828,0.03775 -0.192176,0.01891 -0.388843,0.03654 -0.580078,0.06292 -0.124863,0.01697 -0.249929,0.04026 -0.373828,0.06292 -0.08332,0.01405 -0.160001,0.03194 -0.244922,0.05034 -0.220305,0.04744 -0.442811,0.108607 -0.657422,0.176177 -0.131652,0.04246 -0.245056,0.09726 -0.373828,0.151009 -0.08486,0.03395 -0.187273,0.05963 -0.270703,0.100672 -0.126529,0.0636 -0.230931,0.135238 -0.348047,0.21393 -0.07183,0.04812 -0.15184,0.09866 -0.219141,0.151008 -0.118796,0.09665 -0.237872,0.185029 -0.335156,0.302018 -0.05162,0.04935 -0.08298,0.121823 -0.128906,0.176178 -0.012,0.01557 -0.01483,0.02079 -0.02578,0.03775 -0.125155,0.171959 -0.243439,0.365914 -0.309375,0.566283 -0.371037,1.036217 -0.39069,2.158726 -0.06445,3.208941 1.019782,2.72182 2.40962,5.283449 4.150782,7.638535 -0.807913,0.116254 -1.517986,0.560247 -1.985157,1.208072 -0.503007,0.715906 -0.659934,1.606071 -0.42539,2.441311 1.092242,3.610254 2.615896,7.093137 4.55039,10.356697 -0.65877,0.146611 -1.234055,0.50718 -1.637109,1.031894 -0.577819,0.703646 -0.781988,1.639842 -0.528516,2.504231 1.335157,4.664809 3.488566,9.089496 6.329297,13.074858 h -0.141797 c -0.808177,0.133929 -1.513691,0.55944 -1.985156,1.208072 -0.465071,0.666702 -0.642202,1.492219 -0.464062,2.277718 1.459611,5.532339 4.122191,10.708555 7.798827,15.176397 -0.964025,0.273282 -1.8953,0.642571 -2.784375,1.094815 -0.696152,0.358968 -1.21412,0.96542 -1.430859,1.698852 -0.216494,0.775318 -0.09935,1.591227 0.309375,2.290304 3.863146,6.28203 8.51096,12.086546 13.831641,17.277935 -1.022136,0.40282 -2.007445,0.933089 -2.900391,1.560425 -1.248741,0.92625 -1.557998,2.61969 -0.708984,3.90107 0.185891,0.27163 0.393347,0.57098 0.61875,0.88088 0.240999,0.33018 0.513343,0.66682 0.799218,1.0319 l 0.05156,0.0503 c 2.347359,2.9386 5.03188,5.60586 8.017969,7.94055 l 0.128906,0.10068 c 0.628322,0.49522 1.277558,0.99753 1.972266,1.4975 0.308803,0.22358 0.626334,0.42389 0.941016,0.64179 0.42734,0.29575 0.864069,0.58657 1.314843,0.88089 0.401009,0.26319 0.827697,0.52547 1.2375,0.78021 0.389301,0.24196 0.754757,0.48791 1.160157,0.72987 0.463939,0.27454 0.942355,0.53936 1.417968,0.80539 0.380541,0.21508 0.752083,0.42814 1.147266,0.64178 0.521006,0.27879 1.065724,0.54914 1.598437,0.81797 0.381999,0.19245 0.753576,0.37666 1.147266,0.56628 0.582513,0.2816 1.19468,0.55055 1.791797,0.81797 0.380525,0.17269 0.729251,0.34756 1.121484,0.51594 0.679057,0.2915 1.380219,0.56721 2.075391,0.84314 0.263423,0.10606 0.504115,0.22243 0.773437,0.32718 l 0.02578,0.0126 0.21914,0.0755 c 0.564799,0.21202 5.353423,1.51437 9.3972661,2.36581 -2.9888751,-6.56193 -4.8723541,-15.19384 -5.6332041,-24.32502 -3.27794,-2.168742 -6.452886,-4.465837 -9.397265,-6.883494 -3.461199,-2.348008 0.638867,-7.2045 3.751172,-4.442179 1.692272,1.386892 3.506769,2.716312 5.336718,4.026905 -0.105287,-7.000075 0.443326,-14.006813 1.727345,-20.486876 -6.669878,-1.932625 -13.138133,-4.450813 -19.284375,-7.600786 -2.284328,-1.110126 -4.358445,-2.571809 -6.135938,-4.341507 -3.213734,-2.913834 2.044044,-7.206053 4.498828,-3.67455 0.10028,0.112773 0.08495,0.128407 0.05156,0.113257 0.07023,0.04833 0.218252,0.14579 0.476952,0.339769 1.120876,0.830115 2.299614,1.583918 3.532032,2.252551 3.613425,1.911411 7.397322,3.509737 11.305078,4.781949 -6.223868,-7.837343 -12.832851,-15.374109 -19.81289,-22.613588 -4.356847,-4.52114 -8.847858,-8.925 -13.483595,-13.200699 -3.285598,-3.00244 0.714802,-7.169716 4.086329,-4.089826 12.226928,11.28245 23.540838,23.435187 33.850781,36.367988 -0.311834,-4.047521 -1.151016,-8.036821 -2.500781,-11.879371 -0.487823,-1.354229 -1.089316,-2.669469 -1.804688,-3.926232 -0.162318,-0.2814 -0.252884,-0.432871 -0.296484,-0.515947 0.0057,0.02547 -0.0077,0.03318 -0.103125,-0.0755 -3.037124,-3.443006 1.384472,-7.203502 4.498828,-3.674551 1.673507,2.144938 2.945793,4.562589 3.7382809,7.135173 1.0340431,3.110511 1.7692739,6.297956 2.2945316,9.513563 0.3822773,-0.745395 0.7569223,-1.510572 1.173047,-2.202214 0.4205837,-0.654583 1.0762759,-1.139397 1.8433596,-1.35908 0.7378133,-0.215485 1.5293084,-0.119308 2.2042964,0.239097 0.9935501,0.556782 1.8893945,1.263252 2.6683595,2.076373 C 4.518504,47.305691 10.02332,38.407865 16.782419,31.216391 14.196718,28.266138 8.7945714,24.309108 8.596875,24.156722 8.5353234,24.110011 8.4666438,24.098484 8.4035148,24.05605 7.725279,23.592897 6.875925,23.40498 6.0574194,23.540102 5.2209618,23.692372 4.5066966,24.19149 4.0722648,24.899183 3.6216234,25.699169 3.2378136,26.523218 2.9507796,27.390831 2.8540302,27.301741 2.7514068,27.22758 2.6542944,27.139149 1.9492164,26.492587 1.2254472,25.876756 0.4886694,25.264121 L 0.1664046,24.974688 c -0.7869378,-0.644659 -1.5869377,-1.249535 -2.4105451,-1.84986 -0.1227336,-0.08772 -0.2509023,-0.189128 -0.3738286,-0.27685 -0.8112185,-0.581857 -1.6298614,-1.151427 -2.475,-1.686266 L -5.389453,20.985535 c -1.1596312,-0.723693 -2.3479288,-1.381909 -3.5707029,-2.000869 -0.1067933,-0.05658 -0.2039869,-0.123818 -0.309375,-0.176177 -0.1493105,-0.07358 -0.3062638,-0.144592 -0.4511721,-0.213929 -0.2253847,-0.108957 -0.439347,-0.201552 -0.657422,-0.302018 l -0.283594,-0.125841 c -0.256109,-0.116023 -0.516115,-0.247646 -0.760546,-0.352354 l -0.219141,-0.08809 c -0.248821,-0.104692 -0.486237,-0.211457 -0.721875,-0.302018 -0.07457,-0.03112 -0.144504,-0.04717 -0.219141,-0.0755 -0.218884,-0.08414 -0.450142,-0.158158 -0.670313,-0.239098 l -0.257812,-0.08809 c -0.175639,-0.06229 -0.377457,-0.146164 -0.541406,-0.201345 l -0.438282,-0.151009 c -0.07886,-0.02406 -0.168779,-0.04028 -0.244921,-0.06292 -0.206366,-0.06433 -0.410475,-0.130468 -0.61875,-0.188761 -0.248278,-0.06555 -0.516167,-0.106433 -0.773438,-0.113257 h -0.06445 c -0.0621,0.0023 -0.118622,0.02211 -0.180468,0.02517 -0.165711,0.0061 -0.34018,0.0061 -0.502735,0.03775 -0.392214,0.07745 -0.758287,0.25159 -1.082812,0.478195 -0.674278,0.490946 -1.112957,1.215525 -1.211719,2.026037 -4.728936,-3.178769 -10.052699,-5.405551 -15.687891,-6.556306 h -0.05156 c -0.219298,-0.03676 -0.43511,-0.04818 -0.657421,-0.03775 -0.09686,0.0044 -0.201427,0.02502 -0.296484,0.03775 -1.321603,0.153625 -2.356748,1.185735 -2.487891,2.46648 -3.856104,-1.65766 -7.963487,-2.729677 -12.155859,-3.196356 l -0.02578,-0.02517 c -0.104529,-0.01033 -0.204286,0 -0.309375,0 z"
     id="path2735"
     inkscape:connector-curvature="0" />
  <path
     style="fill:#ffffff;fill-opacity:1;stroke:none;stroke-width:0.71191406;stroke-linejoin:miter;stroke-miterlimit:4;stroke-dasharray:none;stroke-dashoffset:0;stroke-opacity:1;paint-order:stroke fill markers"
     d="m -5.8336831,72.189147 h -0.005 z"
     id="path924" />
  <path
     style="fill:#ffffff;fill-opacity:1;stroke:none;stroke-width:0.71191406;stroke-linejoin:miter;stroke-miterlimit:4;stroke-dasharray:none;stroke-dashoffset:0;stroke-opacity:1;paint-order:stroke fill markers"
     d="m -4.8006331,60.723145 c -0.009,0.0017 -0.0179,0 -0.0255,0.0017 0.009,-0.0017 0.0172,0 0.0255,-0.0017 z"
     id="path914" />
  <path
     style="fill:#ffffff;fill-opacity:1;stroke:none;stroke-width:0.71191406;stroke-linejoin:miter;stroke-miterlimit:4;stroke-dasharray:none;stroke-dashoffset:0;stroke-opacity:1;paint-order:stroke fill markers"
     d="m -6.7659731,72.135877 v -8.47e-4 h -0.002 z"
     id="path912" />
  <path
     style="fill:#ffffff;fill-opacity:1;stroke:none;stroke-width:0.71191406;stroke-linejoin:miter;stroke-miterlimit:4;stroke-dasharray:none;stroke-dashoffset:0;stroke-opacity:1;paint-order:stroke fill markers"
     d="m -3.5310931,61.041927 c -0.013485,-0.0089 -0.027781,-0.01655 -0.0427,-0.02282 0.014896,0.0063 0.029188,0.01396 0.0427,0.02282 z"
     id="path2" />
</svg>
