<svg xmlns="http://www.w3.org/2000/svg" width="29.6" height="29.6" viewBox="0 0 29.6 29.6">
  <mask id="a">
    <path d="M.297-.288c-14.109 15.433 9.805 40.825 12.879 27.626.244-1.05-.683-2.69-1.69-4.595-.453-1.136-.74-2.772-.855-4.354-.01-.343-.028-.627-.046-1.263-.02-1.19.066-2.377.261-3.547.162-1.03.342-1.51.746-2.614.06-.13.115-.261.178-.38a.504.504 0 0 1 .281-.237.398.398 0 0 1 .332.043c.15.097.287.219.405.36.6-1.54 1.435-3.082 2.46-4.327C26.357-1.856 1.087-2.098.297-.288z" style="fill:#fff;transform-origin:50% 100%">
      <animateTransform attributeName="transform" attributeType="XML" dur="2s" keyTimes="0; 0.1; 0.2; 1" repeatCount="indefinite" type="rotate" values="0; 5; 0; 0"/>
    </path>
  </mask>
  <g mask="url(#a)">
    <path d="M3.492 3.089c.473.064.93.21 1.351.432-.019-.3.217-.54.492-.5a6.014 6.014 0 0 1 1.848.6c.027-.28.273-.47.53-.408a6.46 6.46 0 0 1 2.382 1.204.512.512 0 0 1 .183-.348.411.411 0 0 1 .393-.064c.448.155 1.544.64 2.764 1.964l.148.145c1.34 1.158 2.383 2.357 3.326 4.32.076.18.25.302.444.314a.422.422 0 0 0 .393-.26c.062-.14.133-.276.213-.406 1.541 2.488 2.118 8.338 1.355 11.173-.718 2.8-.84 3.848-.855 4.067-.8-1.912-1.7-4.008-2.528-5.656.688-1.944.5-4.548-.36-6.863-.26-.703-1.064-.438-.81.244.661 1.772.894 3.779.54 5.407a54.308 54.308 0 0 0-3.177-5.211 11.29 11.29 0 0 0-.559-3.458 3.854 3.854 0 0 0-.562-1.137c-.457-.561-1.056.05-.61.598.013.018.016.018.015.014l.043.08c.108.202.201.412.277.629.212.616.352 1.255.418 1.903a52.01 52.01 0 0 0-4.948-5.778c-.49-.488-1.028.188-.55.663a50.243 50.243 0 0 1 4.867 5.688 9.632 9.632 0 0 1-1.61-.747 4.278 4.278 0 0 1-.507-.355.916.916 0 0 0-.067-.053c.004.002.004 0-.01-.016-.364-.563-1.077.132-.61.594.26.28.557.513.885.688.913.515 1.88.929 2.882 1.234a53.32 53.32 0 0 1 3.114 5.11c-1.47-.448-2.936-1.42-4.146-2.504-.452-.438-1 .35-.5.72 1.527 1.373 3.394 2.57 5.266 2.982.605 1.2 1.833 4.294 2.281 5.43-.576-.543-1.958-1.55-5.104-2.486-3.972-1.09-5.675-3.372-6.228-4.311a.541.541 0 0 1 .11-.677c.133-.104.28-.19.435-.255a15.947 15.947 0 0 1-2.096-3.043.57.57 0 0 1-.045-.398.462.462 0 0 1 .218-.29 2.07 2.07 0 0 1 .421-.177 7.518 7.518 0 0 1-1.18-2.657.529.529 0 0 1 .07-.388.437.437 0 0 1 .301-.203l.02-.002a8.16 8.16 0 0 1-.955-2.288c-.066-.27.083-.54.331-.602A8.828 8.828 0 0 1 3.1 5.945a.537.537 0 0 1 .067-.418.428.428 0 0 1 .302-.201 5.807 5.807 0 0 1-.627-1.34.989.989 0 0 1 .012-.556c.09-.33.544-.332.64-.341z" style="fill:#277944;transform-origin:50% 100%">
      <animateTransform attributeName="transform" attributeType="XML" dur="2s" keyTimes="0; 0.1; 0.2; 1" repeatCount="indefinite" type="rotate" values="0; -5; 0; 0"/>
    </path>
  </g>
  <path d="M26.026 2.805a4.08 4.08 0 0 0-1.287.596c-.018-.3-.282-.508-.55-.435a5.983 5.983 0 0 0-1.759.823c-.062-.275-.329-.433-.576-.34a6.453 6.453 0 0 0-2.216 1.489.512.512 0 0 0-.225-.323.411.411 0 0 0-.398-.015c-.425.209-1.453.826-2.5 2.29l.02.01c-1.187 1.314-2.223 2.785-2.917 4.85a.514.514 0 0 1-.402.365.422.422 0 0 1-.422-.21 3.639 3.639 0 0 0-.26-.376c-1.224 2.659-1.075 8.536.032 11.255 1.058 2.69 1.31 3.715 1.35 3.93.558-1.996 1.192-4.187 1.811-5.924-.922-1.844-1.056-4.452-.489-6.855.172-.73 1.002-.566.833.142-.437 1.84-.42 3.86.132 5.432a54.308 54.308 0 0 1 2.51-5.563 11.29 11.29 0 0 1 .128-3.5c.073-.423.215-.828.418-1.198.384-.613 1.054-.08.68.518-.012.02-.015.02-.014.016l-.033.085a4.485 4.485 0 0 0-.198.658 8.557 8.557 0 0 0-.18 1.94 52.01 52.01 0 0 1 4.198-6.344c.427-.545 1.043.06.628.59a50.243 50.243 0 0 0-4.129 6.245 9.632 9.632 0 0 0 1.506-.94c.162-.126.315-.265.46-.415a.916.916 0 0 1 .06-.06c-.005.002-.005 0 .007-.018.292-.603 1.085-.001.68.514a3.4 3.4 0 0 1-.795.793 14.423 14.423 0 0 1-2.708 1.58 53.32 53.32 0 0 0-2.459 5.456c1.403-.627 2.738-1.772 3.805-2.998.394-.49 1.035.224.586.654-1.347 1.55-3.052 2.968-4.859 3.608-.452 1.266-1.29 4.487-1.594 5.67.505-.61 1.752-1.78 4.758-3.097 3.808-1.57 5.216-4.046 5.65-5.046a.541.541 0 0 0-.193-.658 1.885 1.885 0 0 0-.464-.2 15.947 15.947 0 0 0 1.705-3.278.57.57 0 0 0-.004-.4.462.462 0 0 0-.252-.26c-.143-.058-.29-.1-.44-.125a7.518 7.518 0 0 0 .843-2.782.529.529 0 0 0-.117-.377.437.437 0 0 0-.324-.164h-.02a8.16 8.16 0 0 0 .666-2.388c.032-.275-.149-.525-.403-.556a8.828 8.828 0 0 0 .464-1.878.537.537 0 0 0-.118-.407.428.428 0 0 0-.325-.162c.21-.444.365-.918.457-1.407a.989.989 0 0 0-.08-.55c-.13-.316-.58-.262-.676-.26z" style="fill:#36a65d;transform-origin:50% 100%">
    <animateTransform attributeName="transform" attributeType="XML" dur="2s" keyTimes="0; 0.1; 0.2; 1" repeatCount="indefinite" type="rotate" values="0; 5; 0; 0"/>
  </path>
</svg>
