<svg xmlns="http://www.w3.org/2000/svg" width="24" height="24" viewBox="0 0 24 24">
    <path d="M23.233.004a4.08 4.08 0 0 0-1.287.597c-.018-.3-.281-.508-.55-.435a5.983 5.983 0 0 0-1.758.823c-.062-.275-.33-.433-.576-.34a6.453 6.453 0 0 0-2.217 1.489.512.512 0 0 0-.225-.323.411.411 0 0 0-.398-.015c-.424.209-1.453.826-2.5 2.29l.02.01c-1.187 1.314-2.223 2.785-2.917 4.85a.514.514 0 0 1-.402.365.422.422 0 0 1-.422-.21 3.639 3.639 0 0 0-.261-.376c-1.223 2.659-1.074 8.536.033 11.255.881 2.668 1.076 3.8 1.117 4.016.565-2.646 1.128-4.63 1.994-7.174-.95-1.85-.913-4.535-.096-6.5.324-.76 1.159-.44 1.11.214-.542 1.638-.79 3.064-.277 4.59.93-2.497 1.917-5.19 2.846-6.779-.245-.352-.85-1.466-.258-2.78.376-.638 1.054-.236.88.215-.082.477-.116 1.065.194 1.386.92-1.414 2.142-2.874 3.15-4.315.89-.832 1.595.28 1.113 1.054-.806.844-2.033 2.222-3.088 4.01.107.096 1.164-.265 1.52-.715.327-.392.877-.128.735.36-.423 1.276-2.496 1.6-2.951 1.58-.958 1.746-1.993 4.603-2.779 6.63 1.397-.57 2.704-1.31 3.69-2.776.533-.659 1.418.095.879.96-1.216 1.77-3.064 2.894-4.955 3.41-.452 1.266-1.744 5.447-2.049 6.63.505-.61 1.31-1.779 4.317-3.097 3.807-1.57 5.215-4.046 5.648-5.046a.541.541 0 0 0-.192-.658 1.885 1.885 0 0 0-.464-.199 15.947 15.947 0 0 0 1.705-3.279.57.57 0 0 0-.003-.399.462.462 0 0 0-.252-.261c-.143-.057-.291-.1-.442-.125a7.518 7.518 0 0 0 .844-2.782.529.529 0 0 0-.117-.377.437.437 0 0 0-.324-.164h-.02a8.16 8.16 0 0 0 .666-2.388c.033-.275-.149-.525-.402-.556a8.827 8.827 0 0 0 .463-1.878.537.537 0 0 0-.117-.407.428.428 0 0 0-.326-.162c.21-.444.365-.918.458-1.407a.988.988 0 0 0-.08-.55c-.132-.316-.582-.262-.676-.26z" fill="#36A65D"/>
    <path d="M2.48.288c-.012 0-.02.003-.03.004a.501.501 0 0 0-.042.004c-.02.004-.04.006-.06.013a.276.276 0 0 0-.024.01c-.003 0-.003.002-.005.003a.44.44 0 0 0-.06.033c-.01.005-.02.009-.028.015a.503.503 0 0 0-.198.436A3.924 3.924 0 0 0 .688.412.87.87 0 0 1 .63.418l-.087.01L.485.44.45.449a.98.98 0 0 0-.1.03C.329.485.312.495.293.504.28.51.265.514.252.522.232.532.217.545.198.559L.166.585C.148.602.13.617.114.637.107.645.102.658.096.667L.09.675a.388.388 0 0 0-.046.098.993.993 0 0 0-.01.556c.154.47.366.913.63 1.321a.445.445 0 0 0-.301.21.558.558 0 0 0-.065.422c.165.625.397 1.226.69 1.793-.1.025-.189.09-.249.18a.527.527 0 0 0-.08.433c.204.807.528 1.572.96 2.264h-.021a.456.456 0 0 0-.301.209.556.556 0 0 0-.07.394c.22.956.622 1.85 1.181 2.628a2.172 2.172 0 0 0-.422.19.477.477 0 0 0-.217.294.573.573 0 0 0 .047.397 15.431 15.431 0 0 0 2.096 2.992c-.156.07-.304.161-.44.27a.542.542 0 0 0-.107.675l.094.153c.036.057.077.115.12.178l.008.01c.354.508.762.97 1.216 1.375l.018.017c.098.09.198.176.299.26.047.038.095.073.143.11.065.052.131.102.2.153l.187.135c.059.042.114.085.175.126.07.048.143.094.215.14l.174.111c.08.048.161.095.243.142l.173.098c.089.048.181.095.271.141.059.03.111.06.17.09.104.05.21.098.315.146.04.018.077.038.117.056l.004.002.033.013c.086.037.812.262 1.424.41-.712-2.736-1.09-3.51-.937-5.766-1.445-.245-2.199-.839-2.489-1.462-.314-.96.698-1.2.968-.702.574.646 1.16.897 1.573.854.067-.644.187-1.552.335-2.334C6.327 7.723 4.401 5.76 2.273 3.511c-.499-.52.274-1.518.784-.985C4.845 4.25 7.03 6.491 8.922 8.683c.092-.367.002-.093.148-.452.058-.13.115-.262.178-.381a.504.504 0 0 1 .28-.236.397.397 0 0 1 .333.042c.15.097.287.219.404.36.213-.547.257-.834.528-1.368-.196-.265-.89-.79-.949-.886-.322-.484.209-1.057.696-.82.095.055.77.62.844.65.345-.57.932-1.406 1.34-1.902-.391-.511-1.21-1.196-1.24-1.223-.009-.008-.02-.01-.03-.017a.443.443 0 0 0-.355-.09.45.45 0 0 0-.3.236 2.625 2.625 0 0 0-.17.431l-.046-.043a9.403 9.403 0 0 0-.327-.325l-.05-.05a8.336 8.336 0 0 0-.365-.32l-.057-.049a7.861 7.861 0 0 0-.375-.292l-.046-.03a6.74 6.74 0 0 0-.54-.347c-.016-.01-.031-.022-.047-.03l-.068-.038c-.034-.019-.067-.035-.1-.052l-.043-.022c-.039-.02-.078-.043-.115-.06l-.033-.016c-.038-.018-.074-.037-.11-.052l-.033-.013c-.033-.015-.068-.028-.101-.042l-.04-.015c-.026-.01-.056-.025-.082-.035l-.066-.026-.037-.011-.094-.033a.46.46 0 0 0-.117-.02h-.01c-.009.001-.018.005-.027.005-.025 0-.052 0-.076.006a.412.412 0 0 0-.164.083.527.527 0 0 0-.184.35A6.22 6.22 0 0 0 4.9.416h-.007a.407.407 0 0 0-.1-.006c-.014 0-.03.004-.045.006a.458.458 0 0 0-.376.427A5.85 5.85 0 0 0 2.528.29L2.524.286c-.015-.002-.03 0-.046 0z" fill="#277944"/>
</svg>
