<svg xmlns="http://www.w3.org/2000/svg" width="67" height="24" viewBox="0 0 67 24"><path d="M0 0v.351h.19c.176 0 .34.071.49.212.152.118.28.27.382.457.1.19.177.391.226.599.051.21.076.398.076.562v19.53c0 .186-.025.399-.077.633a2.598 2.52 0 0 1-.226.598c-.097.183-.227.35-.38.494a.696.675 0 0 1-.49.21H0v.353h4.128v-.354h-.19a.74.717 0 0 1-.53-.209 2.885 2.799 0 0 1-.417-.494 2.587 2.51 0 0 1-.226-.598 3.232 3.136 0 0 1-.077-.634V3.518l9.28 20.48 9.77-21.568v19.28c0 .187-.024.4-.075.634a1.907 1.85 0 0 1-.264.598c-.1.187-.226.353-.376.494a.7.68 0 0 1-.495.21h-.189v.353h5.377v-.354h-.189a.745.723 0 0 1-.53-.209 2.876 2.79 0 0 1-.416-.494 2.587 2.51 0 0 1-.227-.598 3.231 3.135 0 0 1-.076-.634V2.181c0-.164.025-.352.076-.563a2.598 2.52 0 0 1 .227-.598c.127-.187.264-.34.415-.457a.745.723 0 0 1 .532-.212h.189V0h-4.28L12.65 19.25 3.862 0zm62.757 2.181L58.97 3.306v.354c.632.024.997.21 1.1.563.124.329.19.69.19 1.09v3.132h-2.122v1.197h2.12v8.76c0 .68.011 1.348.038 2.007a6.06 5.88 0 0 0 .416 1.794c.227.54.594.972 1.1 1.301.504.329 1.212.494 2.12.494.733 0 1.274-.094 1.629-.282.378-.187.67-.364.87-.529a.79.767 0 0 1 .569-.211v-2.568h-.341a3.265 3.168 0 0 1-.907 1.689c-.456.47-.949.704-1.48.704-.353 0-.63-.082-.831-.246-.202-.187-.354-.446-.454-.775a5.468 5.305 0 0 1-.192-1.232 34.55 33.518 0 0 1-.038-1.654V9.642H67V8.446h-4.243zm-30.866.775c-.505 0-.935.165-1.288.494a1.702 1.651 0 0 0-.493 1.195c0 .47.165.857.493 1.162.353.305.783.458 1.287.458.505 0 .936-.153 1.288-.458.354-.305.53-.693.53-1.162 0-.47-.175-.867-.53-1.195a1.795 1.741 0 0 0-1.287-.494zm1.742 5.067-3.79 1.127v.316c.608.024.975.225 1.102.6.125.352.188.728.188 1.126V21.71c0 .187-.026.4-.076.634a2.556 2.48 0 0 1-.227.598 1.892 1.892 0 0 1-.378.494.74.717 0 0 1-.53.21V24h4.923v-.354a.744.722 0 0 1-.532-.209 1.945 1.887 0 0 1-.377-.494 2.587 2.51 0 0 1-.227-.598 3.232 3.136 0 0 1-.076-.634zm9.014.036-3.788 1.127v.317c.606.023.972.222 1.098.598.125.351.19.727.19 1.126V21.71c0 .187-.024.4-.076.634a1.83 1.83 0 0 1-.266.598c-.1.187-.227.353-.376.494a.7.68 0 0 1-.495.21v.353h4.925v-.354a.74.717 0 0 1-.53-.209 4.645 4.506 0 0 1-.379-.494 2.468 2.468 0 0 1-.228-.598 3.231 3.135 0 0 1-.076-.634v-8.583c0-.492.127-.963.381-1.409a4.425 4.425 0 0 1 1.02-1.195 5.448 5.285 0 0 1 1.44-.846 4.54 4.404 0 0 1 1.668-.316 4.36 4.36 0 0 1 1.628.317 3.808 3.694 0 0 1 1.477.915c.43.422.77.95 1.023 1.583.252.633.378 1.372.378 2.218v7.316c0 .187-.025.4-.076.634a1.84 1.84 0 0 1-.266.598c-.1.187-.227.353-.377.494a.7.68 0 0 1-.495.21v.353h4.888v-.354a.744.722 0 0 1-.531-.21 4.645 4.506 0 0 1-.38-.493 2.587 2.51 0 0 1-.226-.598 3.231 3.135 0 0 1-.075-.634v-7.562c0-.681-.126-1.374-.379-2.077a5.447 5.284 0 0 0-1.137-1.97c-.53-.61-1.21-1.102-2.044-1.478-.834-.376-1.844-.564-3.03-.564-.707 0-1.327.071-1.857.212-.505.118-.96.281-1.364.492a4.845 4.7 0 0 0-.984.634 5.654 5.485 0 0 0-.682.598z" style="fill:currentColor"/></svg>
