<svg xmlns="http://www.w3.org/2000/svg" width="24" height="24" viewBox="0 0 24 24">
    <path d="M23.234.004A4.08 4.08 0 0 0 21.947.6c-.018-.3-.282-.508-.55-.435a5.983 5.983 0 0 0-1.759.823c-.062-.275-.329-.433-.576-.34a6.453 6.453 0 0 0-2.216 1.489.512.512 0 0 0-.225-.323.411.411 0 0 0-.398-.015c-.425.209-1.453.826-2.5 2.29l.019.01c-1.186 1.314-2.222 2.785-2.916 4.85a.514.514 0 0 1-.402.365.422.422 0 0 1-.422-.21 3.639 3.639 0 0 0-.261-.376c-1.223 2.659-1.074 8.536.033 11.255 1.058 2.69 1.309 3.715 1.35 3.93.558-1.996 1.192-4.187 1.811-5.924-.922-1.844-1.056-4.452-.489-6.855.172-.73 1.002-.566.833.142-.437 1.84-.42 3.86.132 5.432a54.308 54.308 0 0 1 2.51-5.563c-.14-1.166-.096-2.35.128-3.5.073-.423.215-.828.418-1.198.384-.613 1.054-.08.68.518-.012.02-.015.02-.014.016l-.033.085a4.485 4.485 0 0 0-.198.658 8.557 8.557 0 0 0-.18 1.94A52.01 52.01 0 0 1 20.92 3.32c.427-.545 1.043.06.628.59a50.243 50.243 0 0 0-4.129 6.245 9.632 9.632 0 0 0 1.506-.94c.162-.126.315-.265.459-.415a.916.916 0 0 1 .06-.06c-.004.002-.004 0 .008-.018.292-.603 1.085-.001.68.514-.223.31-.491.578-.795.793a14.423 14.423 0 0 1-2.708 1.58 53.32 53.32 0 0 0-2.459 5.456c1.403-.627 2.738-1.772 3.805-2.998.394-.49 1.035.224.586.654-1.347 1.55-3.052 2.968-4.859 3.608-.452 1.266-1.29 4.487-1.594 5.67.505-.61 1.752-1.78 4.758-3.097 3.808-1.57 5.216-4.046 5.649-5.046a.541.541 0 0 0-.192-.658 1.885 1.885 0 0 0-.464-.2 15.947 15.947 0 0 0 1.705-3.278.57.57 0 0 0-.004-.4.462.462 0 0 0-.252-.26c-.143-.058-.29-.1-.44-.125a7.518 7.518 0 0 0 .843-2.782.529.529 0 0 0-.117-.377.437.437 0 0 0-.324-.164h-.02a8.16 8.16 0 0 0 .666-2.388c.032-.275-.149-.525-.403-.556a8.828 8.828 0 0 0 .464-1.878.537.537 0 0 0-.118-.407.428.428 0 0 0-.325-.162c.21-.444.365-.918.457-1.407a.989.989 0 0 0-.08-.55c-.131-.316-.581-.262-.676-.26z" fill="#36A65D"/>
    <path d="M2.48.288c-.011 0-.019.003-.03.004a.542.587 0 0 0-.041.004c-.02.004-.04.006-.06.013a.289.313 0 0 0-.024.01c-.003 0-.003.002-.006.003a.452.49 0 0 0-.06.033C2.25.36 2.24.364 2.232.37a.45.488 0 0 0-.198.436A4.172 4.52 0 0 0 .688.412a.941 1.02 0 0 1-.057.006l-.088.01L.486.44.45.449a1.043 1.13 0 0 0-.1.03C.33.485.314.495.294.504.28.51.266.514.253.522.233.532.218.545.199.559L.167.585C.148.602.13.617.115.637.108.645.103.657.097.667L.09.675a.346.375 0 0 0-.046.098.85.92 0 0 0-.01.556 5.093 5.518 0 0 0 .63 1.32.447.484 0 0 0-.302.21.48.521 0 0 0-.064.423 7.731 8.376 0 0 0 .69 1.793.425.46 0 0 0-.249.18.456.494 0 0 0-.08.433 7.024 7.61 0 0 0 .96 2.264h-.022a.458.496 0 0 0-.3.209.48.52 0 0 0-.07.394 6.517 7.06 0 0 0 1.18 2.628 2.265 2.454 0 0 0-.421.19.445.482 0 0 0-.217.294.493.534 0 0 0 .046.397 14.294 15.486 0 0 0 2.096 2.992 2.09 2.264 0 0 0-.439.27.474.513 0 0 0-.107.675l.093.153c.037.057.078.115.121.178l.008.01a7.555 8.184 0 0 0 1.215 1.375l.019.017a8.583 9.298 0 0 0 .299.26c.047.038.095.073.143.11.064.052.13.102.2.153l.187.135c.059.042.114.085.175.126.07.048.143.094.215.14l.174.11c.079.049.161.096.242.143l.174.098c.088.048.18.095.271.14.058.03.111.06.17.09.103.05.21.099.315.147.04.018.076.038.117.056l.004.002.033.013c.086.037.811.262 1.423.41-.452-1.136-.738-2.63-.853-4.212a17.299 18.741 0 0 1-1.424-1.192c-.524-.406.097-1.247.569-.77.256.24.531.47.808.698a16.659 18.048 0 0 1 .262-3.547 15.929 17.257 0 0 1-2.922-1.317 3.464 3.753 0 0 1-.93-.751c-.487-.505.31-1.248.682-.637.015.02.013.023.008.02l.072.059a4.5 4.876 0 0 0 .535.39 10.541 11.42 0 0 0 1.713.828A49.352 53.466 0 0 0 4.482 5.52a49.888 54.047 0 0 0-2.043-2.285c-.498-.52.108-1.242.619-.71a51.134 55.396 0 0 1 5.13 6.299 7.809 8.46 0 0 0-.378-2.057 4.135 4.48 0 0 0-.275-.68l-.044-.09c0 .005 0 .007-.016-.013-.46-.596.21-1.247.682-.636a3.632 3.935 0 0 1 .566 1.236c.157.538.268 1.09.347 1.647.059-.13.116-.262.179-.381a.496.537 0 0 1 .28-.236.426.461 0 0 1 .332.042 1.754 1.9 0 0 1 .405.36c.6-1.54 1.435-3.081 2.459-4.326-.392-.511-1.21-1.196-1.24-1.223-.01-.008-.02-.01-.03-.017a.47.51 0 0 0-.355-.09.447.484 0 0 0-.3.236 2.316 2.509 0 0 0-.17.43l-.046-.042a9.087 9.845 0 0 0-.327-.325l-.05-.05a8.174 8.856 0 0 0-.365-.32l-.057-.05a7.813 8.464 0 0 0-.375-.291l-.046-.03a6.833 7.403 0 0 0-.54-.347c-.017-.01-.031-.022-.047-.03l-.068-.038c-.035-.02-.067-.035-.1-.052l-.044-.022c-.038-.02-.077-.043-.114-.06l-.033-.016c-.038-.018-.074-.037-.11-.052l-.033-.013c-.033-.015-.069-.028-.102-.042l-.039-.015-.083-.035-.065-.026-.037-.011-.094-.033a.496.537 0 0 0-.117-.02h-.01c-.009 0-.018.005-.027.005-.025 0-.052 0-.076.006a.426.461 0 0 0-.164.083.476.516 0 0 0-.184.35A6.457 6.994 0 0 0 4.9.416h-.007a.44.477 0 0 0-.1-.006c-.015 0-.03.004-.045.006a.437.473 0 0 0-.377.427A6.217 6.735 0 0 0 2.53.29L2.525.286c-.016-.002-.031 0-.046 0z" fill="#277944"/>
</svg>
