<svg xmlns="http://www.w3.org/2000/svg" width="100" height="24" viewBox="0 0 100 24">
    <path d="M33 0v.351h.19c.176 0 .34.071.49.212.152.118.28.27.382.457.1.19.177.391.226.599.051.21.076.398.076.562v19.53c0 .186-.025.399-.077.633a2.598 2.52 0 0 1-.226.598c-.097.183-.227.35-.38.494a.696.675 0 0 1-.49.21H33v.353h4.128v-.354h-.19a.74.717 0 0 1-.53-.209 2.885 2.799 0 0 1-.417-.494 2.587 2.51 0 0 1-.226-.598 3.232 3.136 0 0 1-.077-.634V3.518l9.28 20.48 9.77-21.568v19.28c0 .187-.024.4-.075.634a1.907 1.85 0 0 1-.264.598c-.1.187-.226.353-.376.494a.7.68 0 0 1-.495.21h-.189v.353h5.377v-.354h-.189a.745.723 0 0 1-.53-.209 2.876 2.79 0 0 1-.416-.494 2.587 2.51 0 0 1-.227-.598 3.231 3.135 0 0 1-.076-.634V2.181c0-.164.025-.352.076-.563a2.598 2.52 0 0 1 .227-.598c.127-.187.264-.34.415-.457a.745.723 0 0 1 .532-.212h.189V0h-4.28L45.65 19.25 36.862 0zm62.757 2.181L91.97 3.306v.354c.632.024.997.21 1.1.563.124.329.19.69.19 1.09v3.132h-2.122v1.197h2.12v8.76c0 .68.011 1.348.038 2.007a6.06 5.88 0 0 0 .416 1.794c.227.54.594.972 1.1 1.301.504.329 1.212.494 2.12.494.733 0 1.274-.094 1.629-.282.378-.187.67-.364.87-.529a.79.767 0 0 1 .569-.211v-2.568h-.341a3.265 3.168 0 0 1-.907 1.689c-.456.47-.949.704-1.48.704-.353 0-.63-.082-.831-.246-.202-.187-.354-.446-.454-.775a5.468 5.305 0 0 1-.192-1.232 34.55 33.518 0 0 1-.038-1.654V9.642H100V8.446h-4.243zm-30.866.775c-.505 0-.935.165-1.288.494a1.702 1.651 0 0 0-.493 1.195c0 .47.165.857.493 1.162.353.305.783.458 1.287.458.505 0 .936-.153 1.288-.458.354-.305.53-.693.53-1.162 0-.47-.175-.867-.53-1.195a1.795 1.741 0 0 0-1.287-.494zm1.742 5.067-3.79 1.127v.316c.608.024.975.225 1.102.6.125.352.188.728.188 1.126V21.71c0 .187-.026.4-.076.634a2.556 2.48 0 0 1-.227.598 1.892 1.892 0 0 1-.378.494.74.717 0 0 1-.53.21V24h4.923v-.354a.744.722 0 0 1-.532-.209 1.945 1.887 0 0 1-.377-.494 2.587 2.51 0 0 1-.227-.598 3.232 3.136 0 0 1-.076-.634zm9.014.036-3.788 1.127v.317c.606.023.972.222 1.098.598.125.351.19.727.19 1.126V21.71c0 .187-.024.4-.076.634a1.83 1.83 0 0 1-.266.598c-.1.187-.227.353-.376.494a.7.68 0 0 1-.495.21v.353h4.925v-.354a.74.717 0 0 1-.53-.209 4.645 4.506 0 0 1-.379-.494 2.468 2.468 0 0 1-.228-.598 3.231 3.135 0 0 1-.076-.634v-8.583c0-.492.127-.963.381-1.409a4.425 4.425 0 0 1 1.02-1.195 5.448 5.285 0 0 1 1.44-.846 4.54 4.404 0 0 1 1.668-.316 4.36 4.36 0 0 1 1.628.317 3.808 3.694 0 0 1 1.477.915c.43.422.77.95 1.023 1.583.252.633.378 1.372.378 2.218v7.316c0 .187-.025.4-.076.634a1.84 1.84 0 0 1-.266.598c-.1.187-.227.353-.377.494a.7.68 0 0 1-.495.21v.353h4.888v-.354a.744.722 0 0 1-.531-.21 4.645 4.506 0 0 1-.38-.493 2.587 2.51 0 0 1-.226-.598 3.231 3.135 0 0 1-.075-.634v-7.562c0-.681-.126-1.374-.379-2.077a5.447 5.284 0 0 0-1.137-1.97c-.53-.61-1.21-1.102-2.044-1.478-.834-.376-1.844-.564-3.03-.564-.707 0-1.327.071-1.857.212-.505.118-.96.281-1.364.492a4.845 4.7 0 0 0-.984.634 5.654 5.485 0 0 0-.682.598z" id="text" fill="currentColor"/>
    <path d="M23.233.004a4.245 4.599 0 0 0-1.287.597.443.48 0 0 0-.55-.435 6.221 6.74 0 0 0-1.758.823.443.48 0 0 0-.576-.34 6.51 7.053 0 0 0-2.217 1.489.475.515 0 0 0-.225-.323.441.478 0 0 0-.398-.015c-.424.209-1.453.826-2.5 2.29l.02.01c-1.187 1.314-2.223 2.785-2.917 4.85a.501.543 0 0 1-.402.365.434.47 0 0 1-.422-.21 3.367 3.648 0 0 0-.261-.376c-1.223 2.659-1.074 8.536.033 11.255 1.058 2.69 1.309 3.715 1.35 3.931.204-.722.557-1.954.63-2.216a48.307 52.334 0 0 1 1.181-3.709c-.922-1.844-1.055-4.452-.489-6.855.172-.729 1.003-.566.834.142-.438 1.84-.421 3.86.13 5.432a48.332 52.36 0 0 1 2.512-5.563 9.648 10.452 0 0 1 .127-3.5 3.399 3.682 0 0 1 .418-1.198c.384-.613 1.054-.08.68.518-.012.02-.014.02-.014.016l-.033.085a3.905 4.231 0 0 0-.197.658 7.31 7.92 0 0 0-.18 1.94 47.878 51.87 0 0 1 4.197-6.344c.426-.545 1.043.06.627.59a46.249 50.104 0 0 0-4.128 6.245 9.79 10.606 0 0 0 1.505-.94 4.178 4.526 0 0 0 .459-.415.916.916 0 0 1 .06-.06c-.004.002-.004.001.008-.018.292-.603 1.086-.001.68.514a3.256 3.527 0 0 1-.794.793 14.75 15.98 0 0 1-2.708 1.58 47.448 51.402 0 0 0-2.46 5.456c1.404-.627 2.738-1.772 3.805-2.998.394-.49 1.035.224.586.654-1.347 1.55-3.052 2.968-4.858 3.608-.453 1.266-1.29 4.487-1.594 5.67.504-.61 1.751-1.779 4.758-3.097 3.807-1.57 5.215-4.046 5.648-5.046a.478.518 0 0 0-.192-.658 1.97 2.135 0 0 0-.464-.199 14.351 15.548 0 0 0 1.705-3.279.488.529 0 0 0-.003-.399.444.481 0 0 0-.252-.261 2.308 2.5 0 0 0-.442-.125 6.555 7.102 0 0 0 .844-2.782.463.502 0 0 0-.117-.377.45.488 0 0 0-.324-.164h-.02a7.089 7.68 0 0 0 .666-2.388.458.496 0 0 0-.402-.556 7.637 8.274 0 0 0 .463-1.878.47.509 0 0 0-.117-.407.441.478 0 0 0-.326-.162A5.064 5.486 0 0 0 23.99.815a.85.92 0 0 0-.08-.55c-.132-.316-.582-.262-.676-.26z" fill="#36A65D"/>
    <path d="M2.48.288c-.012 0-.02.003-.03.004a.542.587 0 0 0-.042.004c-.02.004-.04.006-.06.013a.289.313 0 0 0-.024.01c-.003 0-.003.002-.005.003a.452.49 0 0 0-.06.033c-.01.005-.02.009-.028.015a.45.488 0 0 0-.198.436A4.172 4.52 0 0 0 .688.412.941 1.02 0 0 1 .63.418l-.087.01L.485.44.45.449a1.043 1.13 0 0 0-.1.03C.329.485.312.495.293.504.28.51.265.514.252.522.232.532.217.545.198.559L.166.585C.148.602.13.617.114.637.107.645.102.658.096.667L.09.675a.346.375 0 0 0-.046.098.85.92 0 0 0-.01.556 5.093 5.518 0 0 0 .63 1.321.447.484 0 0 0-.301.21.48.521 0 0 0-.065.422 7.731 8.376 0 0 0 .69 1.793.425.46 0 0 0-.249.18.456.494 0 0 0-.08.433 7.024 7.61 0 0 0 .96 2.264h-.021a.458.496 0 0 0-.301.209.48.52 0 0 0-.07.394 6.517 7.06 0 0 0 1.181 2.628 2.265 2.454 0 0 0-.422.19.445.482 0 0 0-.217.294.493.534 0 0 0 .047.397 14.294 15.486 0 0 0 2.096 2.992 2.09 2.264 0 0 0-.44.27.474.513 0 0 0-.107.675l.094.153c.036.057.077.115.12.178l.008.01a7.555 8.184 0 0 0 1.216 1.375l.018.017a8.583 9.298 0 0 0 .299.26c.047.038.095.073.143.11.065.052.131.102.2.153l.187.135c.059.042.114.085.175.126.07.048.143.094.215.14l.174.111c.08.048.161.095.243.142l.173.098c.089.048.181.095.271.141.059.03.111.06.17.09.104.05.21.098.315.146.04.018.077.038.117.056l.004.002.033.013c.086.037.812.262 1.424.41-.453-1.136-.739-2.63-.853-4.212a17.299 18.741 0 0 1-1.425-1.192c-.524-.406.097-1.247.569-.77.257.24.532.471.809.698a16.659 18.048 0 0 1 .262-3.547 15.929 17.257 0 0 1-2.923-1.317 3.464 3.753 0 0 1-.93-.751c-.486-.505.31-1.248.682-.637.016.02.013.023.008.02.01.008.033.025.072.059a4.5 4.876 0 0 0 .536.39 10.541 11.42 0 0 0 1.712.828A49.352 53.466 0 0 0 4.481 5.52 49.888 54.047 0 0 0 2.44 3.235c-.499-.52.108-1.242.618-.709a51.134 55.396 0 0 1 5.13 6.298 7.809 8.46 0 0 0-.378-2.057 4.135 4.48 0 0 0-.274-.68l-.045-.09c0 .005 0 .007-.015-.013-.46-.596.21-1.247.68-.636a3.632 3.935 0 0 1 .568 1.236c.157.538.267 1.09.347 1.647.058-.13.115-.262.178-.381a.496.537 0 0 1 .28-.236.426.461 0 0 1 .333.042 1.754 1.9 0 0 1 .404.36c.6-1.54 1.435-3.081 2.459-4.326-.391-.511-1.21-1.196-1.24-1.223-.009-.008-.02-.01-.03-.017a.47.51 0 0 0-.355-.09.447.484 0 0 0-.3.236 2.316 2.509 0 0 0-.17.431l-.046-.043a9.087 9.845 0 0 0-.327-.325l-.05-.05a8.174 8.856 0 0 0-.365-.32l-.057-.049a7.813 8.464 0 0 0-.375-.292l-.046-.03a6.833 7.403 0 0 0-.54-.347c-.016-.01-.031-.022-.047-.03l-.068-.038c-.034-.019-.067-.035-.1-.052l-.043-.022c-.039-.02-.078-.043-.115-.06l-.033-.016c-.038-.018-.074-.037-.11-.052l-.033-.013c-.033-.015-.068-.028-.101-.042l-.04-.015c-.026-.01-.056-.025-.082-.035l-.066-.026-.037-.011-.094-.033a.496.537 0 0 0-.117-.02h-.01c-.009.001-.018.005-.027.005-.025 0-.052 0-.076.006a.426.461 0 0 0-.164.083.476.516 0 0 0-.184.35A6.457 6.994 0 0 0 4.9.416h-.007a.44.477 0 0 0-.1-.006c-.014 0-.03.004-.045.006a.437.473 0 0 0-.376.427A6.217 6.735 0 0 0 2.528.29L2.524.286c-.015-.002-.03 0-.046 0z" fill="#277944"/>
</svg>
